<svg width="240" height="240" viewBox="0 0 240 240" fill="none" xmlns="http://www.w3.org/2000/svg">
<path d="M120 0C136.6 0 152.2 3.15002 166.8 9.45003C181.4 15.75 194.1 24.3 204.9 35.1C215.7 45.9 224.25 58.6 230.55 73.2C236.85 87.8 240 103.4 240 120C240 136.6 236.85 152.2 230.55 166.8C224.25 181.4 215.7 194.1 204.9 204.9C194.1 215.7 181.4 224.25 166.8 230.55C152.2 236.85 136.6 240 120 240H24C17.4 240 11.75 237.65 7.05002 232.95C2.35002 228.25 0 222.6 0 216V120C0 103.4 3.15002 87.8 9.45003 73.2C15.75 58.6 24.3 45.9 35.1 35.1C45.9 24.3 58.6 15.75 73.2 9.45003C87.8 3.15002 103.4 0 120 0ZM120 24C93.2 24 70.5 33.3 51.9 51.9C33.3 70.5 24 93.2 24 120V216H120C146.8 216 169.5 206.7 188.1 188.1C206.7 169.5 216 146.8 216 120C216 93.2 206.7 70.5 188.1 51.9C169.5 33.3 146.8 24 120 24Z" fill="#698AFF"/>
<rect x="168" y="60" width="24" height="120" rx="12" fill="#698AFF"/>
<rect x="102" y="132" width="24" height="90" rx="12" transform="rotate(-90 102 132)" fill="#698AFF"/>
<rect x="102" y="48" width="24" height="156" rx="12" fill="#698AFF"/>
<rect x="53.9136" y="208.463" width="24" height="171.758" rx="12" transform="rotate(-153.689 53.9136 208.463)" fill="#968AE1"/>
<rect x="119.342" y="209.735" width="24" height="163.148" rx="12" transform="rotate(-152.5 119.342 209.735)" fill="#968AE1"/>
<rect x="35.9999" y="84.0158" width="24" height="120" rx="12" fill="#968AE1"/>
</svg>
