<svg width="1091" height="240" viewBox="0 0 1091 240" fill="none" xmlns="http://www.w3.org/2000/svg">
<path d="M325.719 199L282.453 51.9375H325.516L346.234 143.953H347.453L371.625 51.9375H405.75L430.125 144.359H431.344L452.062 51.9375H495.125L451.859 199H414.688L389.297 114.906H388.078L362.688 199H325.719ZM548.344 201.031C513.203 201.031 491.773 179.805 491.672 144.156C491.773 110.031 513.508 87.2812 547.531 87.2812C580.234 87.2812 601.867 108.305 601.969 143.75V152.891H529.656V154.312C529.656 165.789 536.867 173.812 549.156 173.812C557.586 173.812 564.188 170.258 566.625 163.859H601.766C598.008 186.609 578.508 201.031 548.344 201.031ZM529.656 131.359H566.422C566.32 121.406 558.602 114.398 548.344 114.5C538.086 114.398 529.961 121.406 529.656 131.359ZM647.791 83.976C651.951 83.976 655.071 84.3227 657.151 85.016C659.369 85.7093 661.103 87.1653 662.351 89.384C663.599 91.6027 664.985 94.9307 666.511 99.368C667.62 102.557 667.481 105.885 666.095 109.352C664.847 112.819 662.559 115.731 659.231 118.088C655.903 120.445 651.743 121.624 646.751 121.624C641.759 121.624 637.737 120.445 634.687 118.088C631.636 115.731 629.487 112.888 628.239 109.56C626.991 106.232 626.505 103.043 626.783 99.992C627.199 96.1093 629.209 92.504 632.815 89.176C636.42 85.7093 641.412 83.976 647.791 83.976ZM641.967 164.68C642.66 164.403 643.977 164.125 645.919 163.848C647.86 163.432 650.079 163.501 652.575 164.056C655.209 164.611 657.775 165.997 660.271 168.216C662.767 170.435 664.847 174.04 666.511 179.032C668.175 184.024 668.452 188.947 667.343 193.8C666.233 198.653 663.945 202.952 660.479 206.696C657.151 210.579 652.921 213.56 647.791 215.64C642.66 217.72 636.905 218.552 630.527 218.136C627.753 217.997 626.505 217.443 626.783 216.472C626.783 216.056 626.991 215.64 627.407 215.224C627.961 214.808 628.377 214.531 628.655 214.392C629.487 213.837 630.527 212.867 631.775 211.48C633.161 210.232 634.34 208.707 635.311 206.904C636.42 205.24 636.905 203.645 636.767 202.12C636.628 201.427 636.281 200.664 635.727 199.832C635.311 199.139 634.548 198.515 633.439 197.96C632.745 197.544 631.705 196.435 630.319 194.632C628.932 192.829 627.823 190.611 626.991 187.976C626.159 185.341 626.089 182.568 626.783 179.656C627.476 177.16 629.001 174.595 631.359 171.96C633.716 169.325 637.252 166.899 641.967 164.68ZM696.219 199V51.9375H734.812V109.828H789.047V51.9375H827.844V199H789.047V141.109H734.812V199H696.219ZM900.359 201.031C865.219 201.031 843.789 179.805 843.688 144.156C843.789 110.031 865.523 87.2812 899.547 87.2812C932.25 87.2812 953.883 108.305 953.984 143.75V152.891H881.672V154.312C881.672 165.789 888.883 173.812 901.172 173.812C909.602 173.812 916.203 170.258 918.641 163.859H953.781C950.023 186.609 930.523 201.031 900.359 201.031ZM881.672 131.359H918.438C918.336 121.406 910.617 114.398 900.359 114.5C890.102 114.398 881.977 121.406 881.672 131.359ZM1022.84 201.031C987.703 201.031 966.273 179.805 966.172 144.156C966.273 110.031 988.008 87.2812 1022.03 87.2812C1054.73 87.2812 1076.37 108.305 1076.47 143.75V152.891H1004.16V154.312C1004.16 165.789 1011.37 173.812 1023.66 173.812C1032.09 173.812 1038.69 170.258 1041.12 163.859H1076.27C1072.51 186.609 1053.01 201.031 1022.84 201.031ZM1004.16 131.359H1040.92C1040.82 121.406 1033.1 114.398 1022.84 114.5C1012.59 114.398 1004.46 121.406 1004.16 131.359Z" fill="#303030"/>
<path d="M120 9.02815e-07C136.6 9.02815e-07 152.2 3.15002 166.8 9.45002C181.4 15.75 194.1 24.3 204.9 35.1C215.7 45.9 224.25 58.6 230.55 73.2C236.85 87.8 240 103.4 240 120C240 136.6 236.85 152.2 230.55 166.8C224.25 181.4 215.7 194.1 204.9 204.9C194.1 215.7 181.4 224.25 166.8 230.55C152.2 236.85 136.6 240 120 240H24C17.4 240 11.75 237.65 7.05001 232.95C2.35001 228.25 9.02815e-07 222.6 9.02815e-07 216V120C9.02815e-07 103.4 3.15002 87.8 9.45002 73.2C15.75 58.6 24.3 45.9 35.1 35.1C45.9 24.3 58.6 15.75 73.2 9.45002C87.8 3.15002 103.4 9.02815e-07 120 9.02815e-07ZM120 24C93.2 24 70.5 33.3 51.9 51.9C33.3 70.5 24 93.2 24 120V216H120C146.8 216 169.5 206.7 188.1 188.1C206.7 169.5 216 146.8 216 120C216 93.2 206.7 70.5 188.1 51.9C169.5 33.3 146.8 24 120 24Z" fill="#698AFF"/>
<rect x="168" y="60" width="24" height="120" rx="12" fill="#698AFF"/>
<rect x="102" y="132" width="24" height="90" rx="12" transform="rotate(-90 102 132)" fill="#698AFF"/>
<rect x="102" y="48" width="24" height="156" rx="12" fill="#698AFF"/>
<rect x="53.9137" y="208.463" width="24" height="171.758" rx="12" transform="rotate(-153.689 53.9137 208.463)" fill="#968AE1"/>
<rect x="119.343" y="209.735" width="24" height="163.148" rx="12" transform="rotate(-152.5 119.343 209.735)" fill="#968AE1"/>
<rect x="36" y="84.0158" width="24" height="120" rx="12" fill="#968AE1"/>
</svg>
