<svg width="624" height="84" viewBox="0 0 624 84" fill="none" xmlns="http://www.w3.org/2000/svg">
<rect width="624" height="84" rx="42" fill="#00C13A"/>
<path d="M201.102 59H193.648L181.039 40.6719H180.805V59H171.898V25.0625H179.492L191.914 43.2969H192.195V25.0625H201.102V59Z" fill="white"/>
<path d="M245.974 46.3203C247.351 46.3008 248.649 46.2324 249.87 46.1152C251.101 45.998 252.36 45.8027 253.649 45.5293L254.118 48.2832C252.565 48.625 251.052 48.8545 249.577 48.9717C248.103 49.0791 246.413 49.1328 244.509 49.1328H242.722V31.7598H245.974V46.3203ZM264.46 55.6074H261.354V29.123H264.46V55.6074ZM258.776 54.3477H255.7V40.3145H250.163V37.6777H255.7V29.6797H258.776V54.3477ZM289.567 55.6367H286.286V29.123H289.567V55.6367ZM275.3 31.0566C276.628 31.0566 277.81 31.4424 278.845 32.2139C279.89 32.9756 280.71 34.0645 281.306 35.4805C281.901 36.8867 282.204 38.5273 282.214 40.4023C282.204 42.2871 281.901 43.9375 281.306 45.3535C280.72 46.7695 279.904 47.8633 278.859 48.6348C277.814 49.3965 276.628 49.7773 275.3 49.7773C273.962 49.7773 272.771 49.3965 271.726 48.6348C270.681 47.8633 269.86 46.7695 269.265 45.3535C268.679 43.9375 268.386 42.2871 268.386 40.4023C268.386 38.5273 268.679 36.8867 269.265 35.4805C269.86 34.0645 270.681 32.9756 271.726 32.2139C272.771 31.4424 273.962 31.0566 275.3 31.0566ZM275.3 33.9863C274.548 33.9863 273.884 34.2402 273.308 34.748C272.741 35.2559 272.302 35.9932 271.989 36.96C271.677 37.9268 271.521 39.0742 271.521 40.4023C271.521 41.7402 271.677 42.8926 271.989 43.8594C272.302 44.8262 272.741 45.5684 273.308 46.0859C273.884 46.5938 274.548 46.8477 275.3 46.8477C276.042 46.8477 276.696 46.5938 277.263 46.0859C277.829 45.5684 278.269 44.8262 278.581 43.8594C278.894 42.8926 279.05 41.7402 279.05 40.4023C279.05 39.0742 278.894 37.9316 278.581 36.9746C278.269 36.0078 277.829 35.2705 277.263 34.7627C276.696 34.2451 276.042 33.9863 275.3 33.9863ZM315.671 55.6367H312.448V41.2812H307.058V49.2207H294.46V31.1738H297.741V37.7656H303.864V31.1738H307.058V38.6152H312.448V29.123H315.671V55.6367ZM303.864 46.6133V40.3145H297.741V46.6133H303.864ZM343.591 52.5312H319.392V49.8359H329.821V45.5293H322.263V36.8574H337.497V33.5762H322.204V30.9395H340.72V39.4355H325.515V42.8633H341.335V45.5293H333.044V49.8359H343.591V52.5312ZM375.29 55.6074H372.185V29.123H375.29V55.6074ZM369.812 54.3477H366.706V45.5H362.575V42.834H366.706V38.9082H363.044C362.399 41.1738 361.345 43.2344 359.88 45.0898C358.425 46.9453 356.491 48.5859 354.079 50.0117L352.175 47.6973C354.87 46.1055 356.896 44.2695 358.254 42.1895C359.621 40.1094 360.427 37.707 360.671 34.9824H353.581V32.3457H363.894C363.894 33.7129 363.801 35.0117 363.615 36.2422H366.706V29.7676H369.812V54.3477ZM402.507 44.7676H378.366V42.1309H388.796V38.4395H392.019V42.1309H402.507V44.7676ZM392.048 30.5586C392.048 31.6328 392.419 32.6533 393.161 33.6201C393.913 34.5771 394.978 35.3926 396.354 36.0664C397.731 36.7402 399.323 37.1895 401.13 37.4141L399.87 39.9629C397.692 39.6211 395.773 38.9814 394.113 38.0439C392.463 37.0967 391.218 35.9297 390.378 34.543C389.528 35.9297 388.273 37.0967 386.613 38.0439C384.963 38.9814 383.044 39.6211 380.856 39.9629L379.685 37.4141C381.462 37.1895 383.034 36.7354 384.401 36.0518C385.778 35.3682 386.843 34.5479 387.595 33.5908C388.356 32.624 388.737 31.6133 388.737 30.5586V29.5625H392.048V30.5586ZM399.548 55.6074H396.296V49.4258H381.032V46.877H399.548V55.6074ZM425.036 39.6699H429.108V42.3652H425.036V55.6074H421.813V29.123H425.036V39.6699ZM419.763 35.8027H404.147V33.1953H410.417V29.5039H413.669V33.1953H419.763V35.8027ZM412.058 37.5312C413.317 37.5312 414.45 37.7998 415.456 38.3369C416.472 38.8643 417.268 39.6016 417.844 40.5488C418.42 41.4961 418.708 42.5703 418.708 43.7715C418.708 44.9727 418.42 46.0469 417.844 46.9941C417.268 47.9316 416.472 48.6641 415.456 49.1914C414.45 49.7188 413.317 49.9824 412.058 49.9824C410.778 49.9824 409.631 49.7188 408.615 49.1914C407.6 48.6641 406.804 47.9316 406.228 46.9941C405.651 46.0469 405.368 44.9727 405.378 43.7715C405.368 42.5703 405.651 41.4961 406.228 40.5488C406.804 39.6016 407.6 38.8643 408.615 38.3369C409.631 37.7998 410.778 37.5312 412.058 37.5312ZM412.058 40.1973C411.364 40.1973 410.744 40.3438 410.197 40.6367C409.66 40.9297 409.24 41.3496 408.938 41.8965C408.635 42.4336 408.483 43.0586 408.483 43.7715C408.483 44.4844 408.635 45.1094 408.938 45.6465C409.24 46.1738 409.66 46.584 410.197 46.877C410.744 47.1602 411.364 47.2969 412.058 47.2871C412.731 47.2969 413.332 47.1602 413.859 46.877C414.396 46.584 414.816 46.1738 415.119 45.6465C415.432 45.1094 415.593 44.4844 415.603 43.7715C415.593 43.0586 415.432 42.4336 415.119 41.8965C414.816 41.3594 414.396 40.9443 413.859 40.6514C413.332 40.3486 412.731 40.1973 412.058 40.1973ZM452.341 55.6074H449.06V29.123H452.341V55.6074ZM444.431 31.9355C444.431 36.1445 443.479 39.8408 441.574 43.0244C439.67 46.1982 436.511 48.8301 432.097 50.9199L430.397 48.3125C433.806 46.6914 436.369 44.7529 438.088 42.4971C439.816 40.2314 440.827 37.5703 441.12 34.5137H431.745V31.9355H444.431Z" fill="white"/>
</svg>
